<?xml version="1.0" encoding="utf-8" standalone="no"?>
<!DOCTYPE svg PUBLIC "-//W3C//DTD SVG 1.1//EN"
  "http://www.w3.org/Graphics/SVG/1.1/DTD/svg11.dtd">
<svg height="720pt" version="1.1" viewBox="0 0 1440 720" width="1440pt" xmlns="http://www.w3.org/2000/svg" xmlns:xlink="http://www.w3.org/1999/xlink">
 <metadata>
  <rdf:RDF xmlns:cc="http://creativecommons.org/ns#" xmlns:dc="http://purl.org/dc/elements/1.1/" xmlns:rdf="http://www.w3.org/1999/02/22-rdf-syntax-ns#">
   <cc:Work>
    <dc:type rdf:resource="http://purl.org/dc/dcmitype/StillImage"/>
    <dc:date>2023-05-02T17:05:12.715300</dc:date>
    <dc:format>image/svg+xml</dc:format>
    <dc:creator>
     <cc:Agent>
      <dc:title>Matplotlib v3.4.3, https://matplotlib.org/</dc:title>
     </cc:Agent>
    </dc:creator>
   </cc:Work>
  </rdf:RDF>
 </metadata>
 <defs>
  <style type="text/css">*{stroke-linecap:butt;stroke-linejoin:round;}</style>
 </defs>
 <g id="figure_1">
  <g id="patch_1">
   <path d="M 0 720 
L 1440 720 
L 1440 0 
L 0 0 
z
" style="fill:none;"/>
  </g>
  <g id="axes_1">
   <g id="patch_2">
    <path d="M 99.214141 641.24 
L 1416.24 641.24 
L 1416.24 23.76 
L 99.214141 23.76 
z
" style="fill:#ffffff;"/>
   </g>
   <g id="PolyCollection_1">
    <defs>
     <path d="M 159.078952 60067.475534 
L 159.078952 60067.475534 
L 159.078952 60067.475534 
L 159.078952 60067.475534 
z
" id="mb855ad2e7d" style="stroke:#1f77b4;stroke-opacity:0.2;"/>
    </defs>
    <g clip-path="url(#p8ce1934aad)">
     <use style="fill:#1f77b4;fill-opacity:0.2;stroke:#1f77b4;stroke-opacity:0.2;" x="0" xlink:href="#mb855ad2e7d" y="720"/>
    </g>
   </g>
   <g id="PolyCollection_2">
    <defs>
     <path d="M 159.078952 60067.475534 
L 159.078952 60067.475534 
L 159.078952 60067.475534 
L 159.078952 60067.475534 
z
" id="m7ac1de3cbc" style="stroke:#ff7f0e;stroke-opacity:0.2;"/>
    </defs>
    <g clip-path="url(#p8ce1934aad)">
     <use style="fill:#ff7f0e;fill-opacity:0.2;stroke:#ff7f0e;stroke-opacity:0.2;" x="0" xlink:href="#m7ac1de3cbc" y="720"/>
    </g>
   </g>
   <g id="PolyCollection_3">
    <defs>
     <path d="M 159.078952 60067.475534 
L 159.078952 60067.475534 
L 159.078952 60067.475534 
L 159.078952 60067.475534 
z
" id="m72c9b32754" style="stroke:#2ca02c;stroke-opacity:0.2;"/>
    </defs>
    <g clip-path="url(#p8ce1934aad)">
     <use style="fill:#2ca02c;fill-opacity:0.2;stroke:#2ca02c;stroke-opacity:0.2;" x="0" xlink:href="#m72c9b32754" y="720"/>
    </g>
   </g>
   <g id="matplotlib.axis_1">
    <g id="xtick_1">
     <g id="line2d_1">
      <defs>
       <path d="M 0 0 
L 0 3.5 
" id="md3590d76bf" style="stroke:#000000;stroke-width:0.8;"/>
      </defs>
      <g>
       <use style="stroke:#000000;stroke-width:0.8;" x="159.078952" xlink:href="#md3590d76bf" y="641.24"/>
      </g>
     </g>
     <g id="text_1">
      <!-- 0 -->
      <g transform="translate(152.080202 664.956563)scale(0.22 -0.22)">
       <defs>
        <path d="M 2034 4250 
Q 1547 4250 1301 3770 
Q 1056 3291 1056 2328 
Q 1056 1369 1301 889 
Q 1547 409 2034 409 
Q 2525 409 2770 889 
Q 3016 1369 3016 2328 
Q 3016 3291 2770 3770 
Q 2525 4250 2034 4250 
z
M 2034 4750 
Q 2819 4750 3233 4129 
Q 3647 3509 3647 2328 
Q 3647 1150 3233 529 
Q 2819 -91 2034 -91 
Q 1250 -91 836 529 
Q 422 1150 422 2328 
Q 422 3509 836 4129 
Q 1250 4750 2034 4750 
z
" id="DejaVuSans-30" transform="scale(0.015625)"/>
       </defs>
       <use xlink:href="#DejaVuSans-30"/>
      </g>
     </g>
    </g>
    <g id="xtick_2">
     <g id="line2d_2">
      <g>
       <use style="stroke:#000000;stroke-width:0.8;" x="346.156489" xlink:href="#md3590d76bf" y="641.24"/>
      </g>
     </g>
     <g id="text_2">
      <!-- 10 -->
      <g transform="translate(332.158989 664.956563)scale(0.22 -0.22)">
       <defs>
        <path d="M 794 531 
L 1825 531 
L 1825 4091 
L 703 3866 
L 703 4441 
L 1819 4666 
L 2450 4666 
L 2450 531 
L 3481 531 
L 3481 0 
L 794 0 
L 794 531 
z
" id="DejaVuSans-31" transform="scale(0.015625)"/>
       </defs>
       <use xlink:href="#DejaVuSans-31"/>
       <use x="63.623047" xlink:href="#DejaVuSans-30"/>
      </g>
     </g>
    </g>
    <g id="xtick_3">
     <g id="line2d_3">
      <g>
       <use style="stroke:#000000;stroke-width:0.8;" x="533.234026" xlink:href="#md3590d76bf" y="641.24"/>
      </g>
     </g>
     <g id="text_3">
      <!-- 20 -->
      <g transform="translate(519.236526 664.956563)scale(0.22 -0.22)">
       <defs>
        <path d="M 1228 531 
L 3431 531 
L 3431 0 
L 469 0 
L 469 531 
Q 828 903 1448 1529 
Q 2069 2156 2228 2338 
Q 2531 2678 2651 2914 
Q 2772 3150 2772 3378 
Q 2772 3750 2511 3984 
Q 2250 4219 1831 4219 
Q 1534 4219 1204 4116 
Q 875 4013 500 3803 
L 500 4441 
Q 881 4594 1212 4672 
Q 1544 4750 1819 4750 
Q 2544 4750 2975 4387 
Q 3406 4025 3406 3419 
Q 3406 3131 3298 2873 
Q 3191 2616 2906 2266 
Q 2828 2175 2409 1742 
Q 1991 1309 1228 531 
z
" id="DejaVuSans-32" transform="scale(0.015625)"/>
       </defs>
       <use xlink:href="#DejaVuSans-32"/>
       <use x="63.623047" xlink:href="#DejaVuSans-30"/>
      </g>
     </g>
    </g>
    <g id="xtick_4">
     <g id="line2d_4">
      <g>
       <use style="stroke:#000000;stroke-width:0.8;" x="720.311563" xlink:href="#md3590d76bf" y="641.24"/>
      </g>
     </g>
     <g id="text_4">
      <!-- 30 -->
      <g transform="translate(706.314063 664.956563)scale(0.22 -0.22)">
       <defs>
        <path d="M 2597 2516 
Q 3050 2419 3304 2112 
Q 3559 1806 3559 1356 
Q 3559 666 3084 287 
Q 2609 -91 1734 -91 
Q 1441 -91 1130 -33 
Q 819 25 488 141 
L 488 750 
Q 750 597 1062 519 
Q 1375 441 1716 441 
Q 2309 441 2620 675 
Q 2931 909 2931 1356 
Q 2931 1769 2642 2001 
Q 2353 2234 1838 2234 
L 1294 2234 
L 1294 2753 
L 1863 2753 
Q 2328 2753 2575 2939 
Q 2822 3125 2822 3475 
Q 2822 3834 2567 4026 
Q 2313 4219 1838 4219 
Q 1578 4219 1281 4162 
Q 984 4106 628 3988 
L 628 4550 
Q 988 4650 1302 4700 
Q 1616 4750 1894 4750 
Q 2613 4750 3031 4423 
Q 3450 4097 3450 3541 
Q 3450 3153 3228 2886 
Q 3006 2619 2597 2516 
z
" id="DejaVuSans-33" transform="scale(0.015625)"/>
       </defs>
       <use xlink:href="#DejaVuSans-33"/>
       <use x="63.623047" xlink:href="#DejaVuSans-30"/>
      </g>
     </g>
    </g>
    <g id="xtick_5">
     <g id="line2d_5">
      <g>
       <use style="stroke:#000000;stroke-width:0.8;" x="907.3891" xlink:href="#md3590d76bf" y="641.24"/>
      </g>
     </g>
     <g id="text_5">
      <!-- 40 -->
      <g transform="translate(893.3916 664.956563)scale(0.22 -0.22)">
       <defs>
        <path d="M 2419 4116 
L 825 1625 
L 2419 1625 
L 2419 4116 
z
M 2253 4666 
L 3047 4666 
L 3047 1625 
L 3713 1625 
L 3713 1100 
L 3047 1100 
L 3047 0 
L 2419 0 
L 2419 1100 
L 313 1100 
L 313 1709 
L 2253 4666 
z
" id="DejaVuSans-34" transform="scale(0.015625)"/>
       </defs>
       <use xlink:href="#DejaVuSans-34"/>
       <use x="63.623047" xlink:href="#DejaVuSans-30"/>
      </g>
     </g>
    </g>
    <g id="xtick_6">
     <g id="line2d_6">
      <g>
       <use style="stroke:#000000;stroke-width:0.8;" x="1094.466637" xlink:href="#md3590d76bf" y="641.24"/>
      </g>
     </g>
     <g id="text_6">
      <!-- 50 -->
      <g transform="translate(1080.469137 664.956563)scale(0.22 -0.22)">
       <defs>
        <path d="M 691 4666 
L 3169 4666 
L 3169 4134 
L 1269 4134 
L 1269 2991 
Q 1406 3038 1543 3061 
Q 1681 3084 1819 3084 
Q 2600 3084 3056 2656 
Q 3513 2228 3513 1497 
Q 3513 744 3044 326 
Q 2575 -91 1722 -91 
Q 1428 -91 1123 -41 
Q 819 9 494 109 
L 494 744 
Q 775 591 1075 516 
Q 1375 441 1709 441 
Q 2250 441 2565 725 
Q 2881 1009 2881 1497 
Q 2881 1984 2565 2268 
Q 2250 2553 1709 2553 
Q 1456 2553 1204 2497 
Q 953 2441 691 2322 
L 691 4666 
z
" id="DejaVuSans-35" transform="scale(0.015625)"/>
       </defs>
       <use xlink:href="#DejaVuSans-35"/>
       <use x="63.623047" xlink:href="#DejaVuSans-30"/>
      </g>
     </g>
    </g>
    <g id="xtick_7">
     <g id="line2d_7">
      <g>
       <use style="stroke:#000000;stroke-width:0.8;" x="1281.544173" xlink:href="#md3590d76bf" y="641.24"/>
      </g>
     </g>
     <g id="text_7">
      <!-- 60 -->
      <g transform="translate(1267.546673 664.956563)scale(0.22 -0.22)">
       <defs>
        <path d="M 2113 2584 
Q 1688 2584 1439 2293 
Q 1191 2003 1191 1497 
Q 1191 994 1439 701 
Q 1688 409 2113 409 
Q 2538 409 2786 701 
Q 3034 994 3034 1497 
Q 3034 2003 2786 2293 
Q 2538 2584 2113 2584 
z
M 3366 4563 
L 3366 3988 
Q 3128 4100 2886 4159 
Q 2644 4219 2406 4219 
Q 1781 4219 1451 3797 
Q 1122 3375 1075 2522 
Q 1259 2794 1537 2939 
Q 1816 3084 2150 3084 
Q 2853 3084 3261 2657 
Q 3669 2231 3669 1497 
Q 3669 778 3244 343 
Q 2819 -91 2113 -91 
Q 1303 -91 875 529 
Q 447 1150 447 2328 
Q 447 3434 972 4092 
Q 1497 4750 2381 4750 
Q 2619 4750 2861 4703 
Q 3103 4656 3366 4563 
z
" id="DejaVuSans-36" transform="scale(0.015625)"/>
       </defs>
       <use xlink:href="#DejaVuSans-36"/>
       <use x="63.623047" xlink:href="#DejaVuSans-30"/>
      </g>
     </g>
    </g>
    <g id="text_8">
     <!-- Número de vértices -->
     <g transform="translate(634.830586 692.527969)scale(0.25 -0.25)">
      <defs>
       <path d="M 628 4666 
L 1478 4666 
L 3547 763 
L 3547 4666 
L 4159 4666 
L 4159 0 
L 3309 0 
L 1241 3903 
L 1241 0 
L 628 0 
L 628 4666 
z
" id="DejaVuSans-4e" transform="scale(0.015625)"/>
       <path d="M 544 1381 
L 544 3500 
L 1119 3500 
L 1119 1403 
Q 1119 906 1312 657 
Q 1506 409 1894 409 
Q 2359 409 2629 706 
Q 2900 1003 2900 1516 
L 2900 3500 
L 3475 3500 
L 3475 0 
L 2900 0 
L 2900 538 
Q 2691 219 2414 64 
Q 2138 -91 1772 -91 
Q 1169 -91 856 284 
Q 544 659 544 1381 
z
M 1991 3584 
L 1991 3584 
z
M 2419 5119 
L 3041 5119 
L 2022 3944 
L 1544 3944 
L 2419 5119 
z
" id="DejaVuSans-fa" transform="scale(0.015625)"/>
       <path d="M 3328 2828 
Q 3544 3216 3844 3400 
Q 4144 3584 4550 3584 
Q 5097 3584 5394 3201 
Q 5691 2819 5691 2113 
L 5691 0 
L 5113 0 
L 5113 2094 
Q 5113 2597 4934 2840 
Q 4756 3084 4391 3084 
Q 3944 3084 3684 2787 
Q 3425 2491 3425 1978 
L 3425 0 
L 2847 0 
L 2847 2094 
Q 2847 2600 2669 2842 
Q 2491 3084 2119 3084 
Q 1678 3084 1418 2786 
Q 1159 2488 1159 1978 
L 1159 0 
L 581 0 
L 581 3500 
L 1159 3500 
L 1159 2956 
Q 1356 3278 1631 3431 
Q 1906 3584 2284 3584 
Q 2666 3584 2933 3390 
Q 3200 3197 3328 2828 
z
" id="DejaVuSans-6d" transform="scale(0.015625)"/>
       <path d="M 3597 1894 
L 3597 1613 
L 953 1613 
Q 991 1019 1311 708 
Q 1631 397 2203 397 
Q 2534 397 2845 478 
Q 3156 559 3463 722 
L 3463 178 
Q 3153 47 2828 -22 
Q 2503 -91 2169 -91 
Q 1331 -91 842 396 
Q 353 884 353 1716 
Q 353 2575 817 3079 
Q 1281 3584 2069 3584 
Q 2775 3584 3186 3129 
Q 3597 2675 3597 1894 
z
M 3022 2063 
Q 3016 2534 2758 2815 
Q 2500 3097 2075 3097 
Q 1594 3097 1305 2825 
Q 1016 2553 972 2059 
L 3022 2063 
z
" id="DejaVuSans-65" transform="scale(0.015625)"/>
       <path d="M 2631 2963 
Q 2534 3019 2420 3045 
Q 2306 3072 2169 3072 
Q 1681 3072 1420 2755 
Q 1159 2438 1159 1844 
L 1159 0 
L 581 0 
L 581 3500 
L 1159 3500 
L 1159 2956 
Q 1341 3275 1631 3429 
Q 1922 3584 2338 3584 
Q 2397 3584 2469 3576 
Q 2541 3569 2628 3553 
L 2631 2963 
z
" id="DejaVuSans-72" transform="scale(0.015625)"/>
       <path d="M 1959 3097 
Q 1497 3097 1228 2736 
Q 959 2375 959 1747 
Q 959 1119 1226 758 
Q 1494 397 1959 397 
Q 2419 397 2687 759 
Q 2956 1122 2956 1747 
Q 2956 2369 2687 2733 
Q 2419 3097 1959 3097 
z
M 1959 3584 
Q 2709 3584 3137 3096 
Q 3566 2609 3566 1747 
Q 3566 888 3137 398 
Q 2709 -91 1959 -91 
Q 1206 -91 779 398 
Q 353 888 353 1747 
Q 353 2609 779 3096 
Q 1206 3584 1959 3584 
z
" id="DejaVuSans-6f" transform="scale(0.015625)"/>
       <path id="DejaVuSans-20" transform="scale(0.015625)"/>
       <path d="M 2906 2969 
L 2906 4863 
L 3481 4863 
L 3481 0 
L 2906 0 
L 2906 525 
Q 2725 213 2448 61 
Q 2172 -91 1784 -91 
Q 1150 -91 751 415 
Q 353 922 353 1747 
Q 353 2572 751 3078 
Q 1150 3584 1784 3584 
Q 2172 3584 2448 3432 
Q 2725 3281 2906 2969 
z
M 947 1747 
Q 947 1113 1208 752 
Q 1469 391 1925 391 
Q 2381 391 2643 752 
Q 2906 1113 2906 1747 
Q 2906 2381 2643 2742 
Q 2381 3103 1925 3103 
Q 1469 3103 1208 2742 
Q 947 2381 947 1747 
z
" id="DejaVuSans-64" transform="scale(0.015625)"/>
       <path d="M 191 3500 
L 800 3500 
L 1894 563 
L 2988 3500 
L 3597 3500 
L 2284 0 
L 1503 0 
L 191 3500 
z
" id="DejaVuSans-76" transform="scale(0.015625)"/>
       <path d="M 3597 1894 
L 3597 1613 
L 953 1613 
Q 991 1019 1311 708 
Q 1631 397 2203 397 
Q 2534 397 2845 478 
Q 3156 559 3463 722 
L 3463 178 
Q 3153 47 2828 -22 
Q 2503 -91 2169 -91 
Q 1331 -91 842 396 
Q 353 884 353 1716 
Q 353 2575 817 3079 
Q 1281 3584 2069 3584 
Q 2775 3584 3186 3129 
Q 3597 2675 3597 1894 
z
M 3022 2063 
Q 3016 2534 2758 2815 
Q 2500 3097 2075 3097 
Q 1594 3097 1305 2825 
Q 1016 2553 972 2059 
L 3022 2063 
z
M 2469 5119 
L 3091 5119 
L 2072 3944 
L 1594 3944 
L 2469 5119 
z
" id="DejaVuSans-e9" transform="scale(0.015625)"/>
       <path d="M 1172 4494 
L 1172 3500 
L 2356 3500 
L 2356 3053 
L 1172 3053 
L 1172 1153 
Q 1172 725 1289 603 
Q 1406 481 1766 481 
L 2356 481 
L 2356 0 
L 1766 0 
Q 1100 0 847 248 
Q 594 497 594 1153 
L 594 3053 
L 172 3053 
L 172 3500 
L 594 3500 
L 594 4494 
L 1172 4494 
z
" id="DejaVuSans-74" transform="scale(0.015625)"/>
       <path d="M 603 3500 
L 1178 3500 
L 1178 0 
L 603 0 
L 603 3500 
z
M 603 4863 
L 1178 4863 
L 1178 4134 
L 603 4134 
L 603 4863 
z
" id="DejaVuSans-69" transform="scale(0.015625)"/>
       <path d="M 3122 3366 
L 3122 2828 
Q 2878 2963 2633 3030 
Q 2388 3097 2138 3097 
Q 1578 3097 1268 2742 
Q 959 2388 959 1747 
Q 959 1106 1268 751 
Q 1578 397 2138 397 
Q 2388 397 2633 464 
Q 2878 531 3122 666 
L 3122 134 
Q 2881 22 2623 -34 
Q 2366 -91 2075 -91 
Q 1284 -91 818 406 
Q 353 903 353 1747 
Q 353 2603 823 3093 
Q 1294 3584 2113 3584 
Q 2378 3584 2631 3529 
Q 2884 3475 3122 3366 
z
" id="DejaVuSans-63" transform="scale(0.015625)"/>
       <path d="M 2834 3397 
L 2834 2853 
Q 2591 2978 2328 3040 
Q 2066 3103 1784 3103 
Q 1356 3103 1142 2972 
Q 928 2841 928 2578 
Q 928 2378 1081 2264 
Q 1234 2150 1697 2047 
L 1894 2003 
Q 2506 1872 2764 1633 
Q 3022 1394 3022 966 
Q 3022 478 2636 193 
Q 2250 -91 1575 -91 
Q 1294 -91 989 -36 
Q 684 19 347 128 
L 347 722 
Q 666 556 975 473 
Q 1284 391 1588 391 
Q 1994 391 2212 530 
Q 2431 669 2431 922 
Q 2431 1156 2273 1281 
Q 2116 1406 1581 1522 
L 1381 1569 
Q 847 1681 609 1914 
Q 372 2147 372 2553 
Q 372 3047 722 3315 
Q 1072 3584 1716 3584 
Q 2034 3584 2315 3537 
Q 2597 3491 2834 3397 
z
" id="DejaVuSans-73" transform="scale(0.015625)"/>
      </defs>
      <use xlink:href="#DejaVuSans-4e"/>
      <use x="74.804688" xlink:href="#DejaVuSans-fa"/>
      <use x="138.183594" xlink:href="#DejaVuSans-6d"/>
      <use x="235.595703" xlink:href="#DejaVuSans-65"/>
      <use x="297.119141" xlink:href="#DejaVuSans-72"/>
      <use x="335.982422" xlink:href="#DejaVuSans-6f"/>
      <use x="397.164062" xlink:href="#DejaVuSans-20"/>
      <use x="428.951172" xlink:href="#DejaVuSans-64"/>
      <use x="492.427734" xlink:href="#DejaVuSans-65"/>
      <use x="553.951172" xlink:href="#DejaVuSans-20"/>
      <use x="585.738281" xlink:href="#DejaVuSans-76"/>
      <use x="644.917969" xlink:href="#DejaVuSans-e9"/>
      <use x="706.441406" xlink:href="#DejaVuSans-72"/>
      <use x="747.554688" xlink:href="#DejaVuSans-74"/>
      <use x="786.763672" xlink:href="#DejaVuSans-69"/>
      <use x="814.546875" xlink:href="#DejaVuSans-63"/>
      <use x="869.527344" xlink:href="#DejaVuSans-65"/>
      <use x="931.050781" xlink:href="#DejaVuSans-73"/>
     </g>
    </g>
   </g>
   <g id="matplotlib.axis_2">
    <g id="ytick_1">
     <g id="line2d_8">
      <defs>
       <path d="M 0 0 
L -3.5 0 
" id="m704b9d9fe2" style="stroke:#000000;stroke-width:0.8;"/>
      </defs>
      <g>
       <use style="stroke:#000000;stroke-width:0.8;" x="99.214141" xlink:href="#m704b9d9fe2" y="552.998424"/>
      </g>
     </g>
     <g id="text_9">
      <!-- $\mathdefault{10^{1}}$ -->
      <g transform="translate(53.494141 561.356706)scale(0.22 -0.22)">
       <use transform="translate(0 0.684375)" xlink:href="#DejaVuSans-31"/>
       <use transform="translate(63.623047 0.684375)" xlink:href="#DejaVuSans-30"/>
       <use transform="translate(128.203125 38.965625)scale(0.7)" xlink:href="#DejaVuSans-31"/>
      </g>
     </g>
    </g>
    <g id="ytick_2">
     <g id="line2d_9">
      <g>
       <use style="stroke:#000000;stroke-width:0.8;" x="99.214141" xlink:href="#m704b9d9fe2" y="432.649819"/>
      </g>
     </g>
     <g id="text_10">
      <!-- $\mathdefault{10^{3}}$ -->
      <g transform="translate(53.494141 441.0081)scale(0.22 -0.22)">
       <use transform="translate(0 0.765625)" xlink:href="#DejaVuSans-31"/>
       <use transform="translate(63.623047 0.765625)" xlink:href="#DejaVuSans-30"/>
       <use transform="translate(128.203125 39.046875)scale(0.7)" xlink:href="#DejaVuSans-33"/>
      </g>
     </g>
    </g>
    <g id="ytick_3">
     <g id="line2d_10">
      <g>
       <use style="stroke:#000000;stroke-width:0.8;" x="99.214141" xlink:href="#m704b9d9fe2" y="312.301213"/>
      </g>
     </g>
     <g id="text_11">
      <!-- $\mathdefault{10^{5}}$ -->
      <g transform="translate(53.494141 320.659494)scale(0.22 -0.22)">
       <use transform="translate(0 0.684375)" xlink:href="#DejaVuSans-31"/>
       <use transform="translate(63.623047 0.684375)" xlink:href="#DejaVuSans-30"/>
       <use transform="translate(128.203125 38.965625)scale(0.7)" xlink:href="#DejaVuSans-35"/>
      </g>
     </g>
    </g>
    <g id="ytick_4">
     <g id="line2d_11">
      <g>
       <use style="stroke:#000000;stroke-width:0.8;" x="99.214141" xlink:href="#m704b9d9fe2" y="191.952608"/>
      </g>
     </g>
     <g id="text_12">
      <!-- $\mathdefault{10^{7}}$ -->
      <g transform="translate(53.494141 200.310889)scale(0.22 -0.22)">
       <defs>
        <path d="M 525 4666 
L 3525 4666 
L 3525 4397 
L 1831 0 
L 1172 0 
L 2766 4134 
L 525 4134 
L 525 4666 
z
" id="DejaVuSans-37" transform="scale(0.015625)"/>
       </defs>
       <use transform="translate(0 0.684375)" xlink:href="#DejaVuSans-31"/>
       <use transform="translate(63.623047 0.684375)" xlink:href="#DejaVuSans-30"/>
       <use transform="translate(128.203125 38.965625)scale(0.7)" xlink:href="#DejaVuSans-37"/>
      </g>
     </g>
    </g>
    <g id="ytick_5">
     <g id="line2d_12">
      <g>
       <use style="stroke:#000000;stroke-width:0.8;" x="99.214141" xlink:href="#m704b9d9fe2" y="71.604002"/>
      </g>
     </g>
     <g id="text_13">
      <!-- $\mathdefault{10^{9}}$ -->
      <g transform="translate(53.494141 79.962283)scale(0.22 -0.22)">
       <defs>
        <path d="M 703 97 
L 703 672 
Q 941 559 1184 500 
Q 1428 441 1663 441 
Q 2288 441 2617 861 
Q 2947 1281 2994 2138 
Q 2813 1869 2534 1725 
Q 2256 1581 1919 1581 
Q 1219 1581 811 2004 
Q 403 2428 403 3163 
Q 403 3881 828 4315 
Q 1253 4750 1959 4750 
Q 2769 4750 3195 4129 
Q 3622 3509 3622 2328 
Q 3622 1225 3098 567 
Q 2575 -91 1691 -91 
Q 1453 -91 1209 -44 
Q 966 3 703 97 
z
M 1959 2075 
Q 2384 2075 2632 2365 
Q 2881 2656 2881 3163 
Q 2881 3666 2632 3958 
Q 2384 4250 1959 4250 
Q 1534 4250 1286 3958 
Q 1038 3666 1038 3163 
Q 1038 2656 1286 2365 
Q 1534 2075 1959 2075 
z
" id="DejaVuSans-39" transform="scale(0.015625)"/>
       </defs>
       <use transform="translate(0 0.765625)" xlink:href="#DejaVuSans-31"/>
       <use transform="translate(63.623047 0.765625)" xlink:href="#DejaVuSans-30"/>
       <use transform="translate(128.203125 39.046875)scale(0.7)" xlink:href="#DejaVuSans-39"/>
      </g>
     </g>
    </g>
    <g id="text_14">
     <!-- Número de operações -->
     <g transform="translate(44.294922 470.517578)rotate(-90)scale(0.25 -0.25)">
      <defs>
       <path d="M 1159 525 
L 1159 -1331 
L 581 -1331 
L 581 3500 
L 1159 3500 
L 1159 2969 
Q 1341 3281 1617 3432 
Q 1894 3584 2278 3584 
Q 2916 3584 3314 3078 
Q 3713 2572 3713 1747 
Q 3713 922 3314 415 
Q 2916 -91 2278 -91 
Q 1894 -91 1617 61 
Q 1341 213 1159 525 
z
M 3116 1747 
Q 3116 2381 2855 2742 
Q 2594 3103 2138 3103 
Q 1681 3103 1420 2742 
Q 1159 2381 1159 1747 
Q 1159 1113 1420 752 
Q 1681 391 2138 391 
Q 2594 391 2855 752 
Q 3116 1113 3116 1747 
z
" id="DejaVuSans-70" transform="scale(0.015625)"/>
       <path d="M 2194 1759 
Q 1497 1759 1228 1600 
Q 959 1441 959 1056 
Q 959 750 1161 570 
Q 1363 391 1709 391 
Q 2188 391 2477 730 
Q 2766 1069 2766 1631 
L 2766 1759 
L 2194 1759 
z
M 3341 1997 
L 3341 0 
L 2766 0 
L 2766 531 
Q 2569 213 2275 61 
Q 1981 -91 1556 -91 
Q 1019 -91 701 211 
Q 384 513 384 1019 
Q 384 1609 779 1909 
Q 1175 2209 1959 2209 
L 2766 2209 
L 2766 2266 
Q 2766 2663 2505 2880 
Q 2244 3097 1772 3097 
Q 1472 3097 1187 3025 
Q 903 2953 641 2809 
L 641 3341 
Q 956 3463 1253 3523 
Q 1550 3584 1831 3584 
Q 2591 3584 2966 3190 
Q 3341 2797 3341 1997 
z
" id="DejaVuSans-61" transform="scale(0.015625)"/>
       <path d="M 3122 3366 
L 3122 2828 
Q 2878 2963 2633 3030 
Q 2388 3097 2138 3097 
Q 1578 3097 1268 2742 
Q 959 2388 959 1747 
Q 959 1106 1268 751 
Q 1578 397 2138 397 
Q 2388 397 2633 464 
Q 2878 531 3122 666 
L 3122 134 
Q 2881 22 2623 -34 
Q 2366 -91 2075 -91 
Q 1284 -91 818 406 
Q 353 903 353 1747 
Q 353 2603 823 3093 
Q 1294 3584 2113 3584 
Q 2378 3584 2631 3529 
Q 2884 3475 3122 3366 
z
M 2309 0 
Q 2481 -194 2565 -358 
Q 2650 -522 2650 -672 
Q 2650 -950 2462 -1092 
Q 2275 -1234 1906 -1234 
Q 1763 -1234 1627 -1215 
Q 1491 -1197 1356 -1159 
L 1356 -750 
Q 1463 -803 1578 -826 
Q 1694 -850 1841 -850 
Q 2025 -850 2119 -775 
Q 2213 -700 2213 -556 
Q 2213 -463 2145 -327 
Q 2078 -191 1938 0 
L 2309 0 
z
" id="DejaVuSans-e7" transform="scale(0.015625)"/>
       <path d="M 1959 3097 
Q 1497 3097 1228 2736 
Q 959 2375 959 1747 
Q 959 1119 1226 758 
Q 1494 397 1959 397 
Q 2419 397 2687 759 
Q 2956 1122 2956 1747 
Q 2956 2369 2687 2733 
Q 2419 3097 1959 3097 
z
M 1959 3584 
Q 2709 3584 3137 3096 
Q 3566 2609 3566 1747 
Q 3566 888 3137 398 
Q 2709 -91 1959 -91 
Q 1206 -91 779 398 
Q 353 888 353 1747 
Q 353 2609 779 3096 
Q 1206 3584 1959 3584 
z
M 1947 4281 
L 1769 4453 
Q 1700 4516 1648 4545 
Q 1597 4575 1556 4575 
Q 1438 4575 1381 4461 
Q 1325 4347 1319 4091 
L 928 4091 
Q 934 4513 1093 4742 
Q 1253 4972 1538 4972 
Q 1656 4972 1756 4928 
Q 1856 4884 1972 4781 
L 2150 4609 
Q 2219 4547 2270 4517 
Q 2322 4488 2363 4488 
Q 2481 4488 2537 4602 
Q 2594 4716 2600 4972 
L 2991 4972 
Q 2984 4550 2825 4320 
Q 2666 4091 2381 4091 
Q 2263 4091 2163 4134 
Q 2063 4178 1947 4281 
z
" id="DejaVuSans-f5" transform="scale(0.015625)"/>
      </defs>
      <use xlink:href="#DejaVuSans-4e"/>
      <use x="74.804688" xlink:href="#DejaVuSans-fa"/>
      <use x="138.183594" xlink:href="#DejaVuSans-6d"/>
      <use x="235.595703" xlink:href="#DejaVuSans-65"/>
      <use x="297.119141" xlink:href="#DejaVuSans-72"/>
      <use x="335.982422" xlink:href="#DejaVuSans-6f"/>
      <use x="397.164062" xlink:href="#DejaVuSans-20"/>
      <use x="428.951172" xlink:href="#DejaVuSans-64"/>
      <use x="492.427734" xlink:href="#DejaVuSans-65"/>
      <use x="553.951172" xlink:href="#DejaVuSans-20"/>
      <use x="585.738281" xlink:href="#DejaVuSans-6f"/>
      <use x="646.919922" xlink:href="#DejaVuSans-70"/>
      <use x="710.396484" xlink:href="#DejaVuSans-65"/>
      <use x="771.919922" xlink:href="#DejaVuSans-72"/>
      <use x="813.033203" xlink:href="#DejaVuSans-61"/>
      <use x="874.3125" xlink:href="#DejaVuSans-e7"/>
      <use x="929.292969" xlink:href="#DejaVuSans-f5"/>
      <use x="990.474609" xlink:href="#DejaVuSans-65"/>
      <use x="1051.998047" xlink:href="#DejaVuSans-73"/>
     </g>
    </g>
   </g>
   <g id="line2d_13">
    <path clip-path="url(#p8ce1934aad)" d="M 215.101645 721 
L 215.202213 613.172727 
L 233.909967 595.058457 
L 252.617721 584.462288 
L 271.325475 576.944187 
L 290.033228 558.829917 
L 308.740982 516.124583 
L 327.448736 499.654463 
L 346.156489 477.03131 
L 364.864243 449.890326 
L 383.571997 438.67805 
L 402.27975 424.346563 
L 420.987504 415.958672 
L 439.695258 409.2961 
L 458.403011 405.390114 
L 477.110765 394.549535 
L 495.818519 390.31423 
L 514.526272 383.275007 
L 533.234026 380.589225 
L 551.94178 374.170489 
L 570.649533 364.461051 
L 589.357287 357.999131 
L 608.065041 353.113587 
L 626.772795 349.000182 
L 645.480548 342.959643 
L 664.188302 338.015947 
L 682.896056 333.433904 
L 701.603809 329.818159 
L 720.311563 326.182772 
L 739.019317 323.022205 
L 757.72707 318.208603 
L 776.434824 313.995071 
L 795.142578 309.248944 
L 813.850331 305.244894 
L 832.558085 299.765193 
L 851.265839 296.996324 
L 869.973592 294.313342 
L 888.681346 290.344863 
L 907.3891 286.288218 
L 926.096853 284.169544 
L 944.804607 279.95075 
L 963.512361 276.967332 
L 982.220115 274.137756 
L 1000.927868 272.15625 
L 1019.635622 269.003091 
L 1038.343376 265.567869 
L 1057.051129 262.505396 
L 1075.758883 259.45085 
L 1094.466637 256.980371 
L 1113.17439 253.54035 
L 1131.882144 250.709336 
L 1150.589898 247.861348 
L 1169.297651 246.094962 
L 1188.005405 244.254198 
L 1206.713159 241.297578 
L 1225.420912 239.189241 
L 1244.128666 236.632373 
L 1262.83642 235.026345 
L 1281.544173 232.814709 
L 1300.251927 230.718688 
L 1318.959681 228.75143 
L 1337.667435 227.44719 
L 1356.375188 225.601139 
" style="fill:none;stroke:#1f77b4;stroke-linecap:square;stroke-width:3;"/>
   </g>
   <g id="line2d_14">
    <path clip-path="url(#p8ce1934aad)" d="M 215.03141 721 
L 215.202213 537.637579 
L 233.909967 515.494833 
L 252.617721 498.010313 
L 271.325475 481.540193 
L 290.033228 468.670124 
L 308.740982 451.185604 
L 327.448736 438.546727 
L 346.156489 426.651606 
L 364.864243 413.335271 
L 383.571997 403.887165 
L 402.27975 394.181156 
L 420.987504 386.522512 
L 439.695258 380.443477 
L 458.403011 375.124616 
L 477.110765 367.798097 
L 495.818519 362.866433 
L 514.526272 357.201928 
L 533.234026 353.210936 
L 551.94178 348.207692 
L 570.649533 342.588106 
L 589.357287 337.805671 
L 608.065041 333.658975 
L 626.772795 329.737568 
L 645.480548 325.336491 
L 664.188302 321.516518 
L 682.896056 317.796451 
L 701.603809 314.398574 
L 720.311563 311.294343 
L 739.019317 308.237518 
L 757.72707 304.908329 
L 776.434824 301.6497 
L 795.142578 298.323967 
L 813.850331 295.292171 
L 832.558085 291.883333 
L 851.265839 289.426187 
L 869.973592 287.016364 
L 888.681346 284.115895 
L 907.3891 281.218103 
L 926.096853 278.885692 
L 944.804607 276.116352 
L 963.512361 273.724713 
L 982.220115 271.345372 
L 1000.927868 269.320752 
L 1019.635622 266.89319 
L 1038.343376 264.452038 
L 1057.051129 262.203571 
L 1075.758883 259.925688 
L 1094.466637 257.929411 
L 1113.17439 255.670171 
L 1131.882144 253.548765 
L 1150.589898 251.507067 
L 1169.297651 249.748464 
L 1188.005405 248.036787 
L 1206.713159 245.959112 
L 1225.420912 244.194229 
L 1244.128666 242.274816 
L 1262.83642 240.736696 
L 1281.544173 238.974224 
L 1300.251927 237.285646 
L 1318.959681 235.612283 
L 1337.667435 234.2167 
L 1356.375188 232.619633 
" style="fill:none;stroke:#ff7f0e;stroke-linecap:square;stroke-width:3;"/>
   </g>
   <g id="line2d_15">
    <path clip-path="url(#p8ce1934aad)" d="M 214.994931 721 
L 215.202213 498.330972 
L 233.909967 476.188225 
L 252.617721 454.766445 
L 271.325475 430.711261 
L 290.033228 413.185937 
L 308.740982 379.972719 
L 327.448736 361.34647 
L 346.156489 342.757704 
L 364.864243 318.517397 
L 383.571997 305.281427 
L 402.27975 289.831502 
L 420.987504 279.246949 
L 439.695258 271.786342 
L 458.403011 265.429246 
L 477.110765 252.700729 
L 495.818519 246.60296 
L 514.526272 237.987233 
L 533.234026 233.413477 
L 551.94178 225.77643 
L 570.649533 215.912336 
L 589.357287 208.579029 
L 608.065041 202.791144 
L 626.772795 197.334578 
L 645.480548 190.198734 
L 664.188302 184.634262 
L 682.896056 179.138902 
L 701.603809 174.362684 
L 720.311563 170.197304 
L 739.019317 165.982525 
L 757.72707 160.816498 
L 776.434824 155.740078 
L 795.142578 150.337737 
L 813.850331 145.742451 
L 832.558085 139.834781 
L 851.265839 136.688587 
L 869.973592 133.541637 
L 888.681346 128.858061 
L 907.3891 124.107646 
L 926.096853 120.953391 
L 944.804607 116.401829 
L 963.512361 112.935632 
L 982.220115 109.415087 
L 1000.927868 106.791929 
L 1019.635622 102.929063 
L 1038.343376 98.963857 
L 1057.051129 95.541591 
L 1075.758883 91.963273 
L 1094.466637 89.15578 
L 1113.17439 85.490949 
L 1131.882144 82.209513 
L 1150.589898 79.113969 
L 1169.297651 76.764688 
L 1188.005405 74.480945 
L 1206.713159 71.056596 
L 1225.420912 68.545928 
L 1244.128666 65.52355 
L 1262.83642 63.544148 
L 1281.544173 60.890698 
L 1300.251927 58.412417 
L 1318.959681 55.935449 
L 1337.667435 54.176937 
L 1356.375188 51.827273 
" style="fill:none;stroke:#2ca02c;stroke-linecap:square;stroke-width:3;"/>
   </g>
   <g id="line2d_16"/>
   <g id="line2d_17"/>
   <g id="line2d_18"/>
   <g id="patch_3">
    <path d="M 99.214141 641.24 
L 99.214141 23.76 
" style="fill:none;stroke:#000000;stroke-linecap:square;stroke-linejoin:miter;stroke-width:0.8;"/>
   </g>
   <g id="patch_4">
    <path d="M 1416.24 641.24 
L 1416.24 23.76 
" style="fill:none;stroke:#000000;stroke-linecap:square;stroke-linejoin:miter;stroke-width:0.8;"/>
   </g>
   <g id="patch_5">
    <path d="M 99.214141 641.24 
L 1416.24 641.24 
" style="fill:none;stroke:#000000;stroke-linecap:square;stroke-linejoin:miter;stroke-width:0.8;"/>
   </g>
   <g id="patch_6">
    <path d="M 99.214141 23.76 
L 1416.24 23.76 
" style="fill:none;stroke:#000000;stroke-linecap:square;stroke-linejoin:miter;stroke-width:0.8;"/>
   </g>
   <g id="legend_1">
    <g id="patch_7">
     <path d="M 113.214141 160.720625 
L 385.186016 160.720625 
Q 389.186016 160.720625 389.186016 156.720625 
L 389.186016 37.76 
Q 389.186016 33.76 385.186016 33.76 
L 113.214141 33.76 
Q 109.214141 33.76 109.214141 37.76 
L 109.214141 156.720625 
Q 109.214141 160.720625 113.214141 160.720625 
z
" style="fill:#ffffff;opacity:0.8;stroke:#cccccc;stroke-linejoin:miter;"/>
    </g>
    <g id="text_15">
     <!-- Estrutura de dados -->
     <g transform="translate(144.254922 58.476563)scale(0.22 -0.22)">
      <defs>
       <path d="M 628 4666 
L 3578 4666 
L 3578 4134 
L 1259 4134 
L 1259 2753 
L 3481 2753 
L 3481 2222 
L 1259 2222 
L 1259 531 
L 3634 531 
L 3634 0 
L 628 0 
L 628 4666 
z
" id="DejaVuSans-45" transform="scale(0.015625)"/>
       <path d="M 544 1381 
L 544 3500 
L 1119 3500 
L 1119 1403 
Q 1119 906 1312 657 
Q 1506 409 1894 409 
Q 2359 409 2629 706 
Q 2900 1003 2900 1516 
L 2900 3500 
L 3475 3500 
L 3475 0 
L 2900 0 
L 2900 538 
Q 2691 219 2414 64 
Q 2138 -91 1772 -91 
Q 1169 -91 856 284 
Q 544 659 544 1381 
z
M 1991 3584 
L 1991 3584 
z
" id="DejaVuSans-75" transform="scale(0.015625)"/>
      </defs>
      <use xlink:href="#DejaVuSans-45"/>
      <use x="63.183594" xlink:href="#DejaVuSans-73"/>
      <use x="115.283203" xlink:href="#DejaVuSans-74"/>
      <use x="154.492188" xlink:href="#DejaVuSans-72"/>
      <use x="195.605469" xlink:href="#DejaVuSans-75"/>
      <use x="258.984375" xlink:href="#DejaVuSans-74"/>
      <use x="298.193359" xlink:href="#DejaVuSans-75"/>
      <use x="361.572266" xlink:href="#DejaVuSans-72"/>
      <use x="402.685547" xlink:href="#DejaVuSans-61"/>
      <use x="463.964844" xlink:href="#DejaVuSans-20"/>
      <use x="495.751953" xlink:href="#DejaVuSans-64"/>
      <use x="559.228516" xlink:href="#DejaVuSans-65"/>
      <use x="620.751953" xlink:href="#DejaVuSans-20"/>
      <use x="652.539062" xlink:href="#DejaVuSans-64"/>
      <use x="716.015625" xlink:href="#DejaVuSans-61"/>
      <use x="777.294922" xlink:href="#DejaVuSans-64"/>
      <use x="840.771484" xlink:href="#DejaVuSans-6f"/>
      <use x="901.953125" xlink:href="#DejaVuSans-73"/>
     </g>
    </g>
    <g id="line2d_19">
     <path d="M 117.214141 82.04875 
L 157.214141 82.04875 
" style="fill:none;stroke:#1f77b4;stroke-linecap:square;stroke-width:1.5;"/>
    </g>
    <g id="line2d_20"/>
    <g id="text_16">
     <!-- Lista de adjacência -->
     <g transform="translate(173.214141 89.04875)scale(0.2 -0.2)">
      <defs>
       <path d="M 628 4666 
L 1259 4666 
L 1259 531 
L 3531 531 
L 3531 0 
L 628 0 
L 628 4666 
z
" id="DejaVuSans-4c" transform="scale(0.015625)"/>
       <path d="M 603 3500 
L 1178 3500 
L 1178 -63 
Q 1178 -731 923 -1031 
Q 669 -1331 103 -1331 
L -116 -1331 
L -116 -844 
L 38 -844 
Q 366 -844 484 -692 
Q 603 -541 603 -63 
L 603 3500 
z
M 603 4863 
L 1178 4863 
L 1178 4134 
L 603 4134 
L 603 4863 
z
" id="DejaVuSans-6a" transform="scale(0.015625)"/>
       <path d="M 3597 1894 
L 3597 1613 
L 953 1613 
Q 991 1019 1311 708 
Q 1631 397 2203 397 
Q 2534 397 2845 478 
Q 3156 559 3463 722 
L 3463 178 
Q 3153 47 2828 -22 
Q 2503 -91 2169 -91 
Q 1331 -91 842 396 
Q 353 884 353 1716 
Q 353 2575 817 3079 
Q 1281 3584 2069 3584 
Q 2775 3584 3186 3129 
Q 3597 2675 3597 1894 
z
M 3022 2063 
Q 3016 2534 2758 2815 
Q 2500 3097 2075 3097 
Q 1594 3097 1305 2825 
Q 1016 2553 972 2059 
L 3022 2063 
z
M 1803 5119 
L 2266 5119 
L 3031 3944 
L 2597 3944 
L 2034 4709 
L 1472 3944 
L 1038 3944 
L 1803 5119 
z
" id="DejaVuSans-ea" transform="scale(0.015625)"/>
       <path d="M 3513 2113 
L 3513 0 
L 2938 0 
L 2938 2094 
Q 2938 2591 2744 2837 
Q 2550 3084 2163 3084 
Q 1697 3084 1428 2787 
Q 1159 2491 1159 1978 
L 1159 0 
L 581 0 
L 581 3500 
L 1159 3500 
L 1159 2956 
Q 1366 3272 1645 3428 
Q 1925 3584 2291 3584 
Q 2894 3584 3203 3211 
Q 3513 2838 3513 2113 
z
" id="DejaVuSans-6e" transform="scale(0.015625)"/>
      </defs>
      <use xlink:href="#DejaVuSans-4c"/>
      <use x="55.712891" xlink:href="#DejaVuSans-69"/>
      <use x="83.496094" xlink:href="#DejaVuSans-73"/>
      <use x="135.595703" xlink:href="#DejaVuSans-74"/>
      <use x="174.804688" xlink:href="#DejaVuSans-61"/>
      <use x="236.083984" xlink:href="#DejaVuSans-20"/>
      <use x="267.871094" xlink:href="#DejaVuSans-64"/>
      <use x="331.347656" xlink:href="#DejaVuSans-65"/>
      <use x="392.871094" xlink:href="#DejaVuSans-20"/>
      <use x="424.658203" xlink:href="#DejaVuSans-61"/>
      <use x="485.9375" xlink:href="#DejaVuSans-64"/>
      <use x="549.414062" xlink:href="#DejaVuSans-6a"/>
      <use x="577.197266" xlink:href="#DejaVuSans-61"/>
      <use x="638.476562" xlink:href="#DejaVuSans-63"/>
      <use x="693.457031" xlink:href="#DejaVuSans-ea"/>
      <use x="754.980469" xlink:href="#DejaVuSans-6e"/>
      <use x="818.359375" xlink:href="#DejaVuSans-63"/>
      <use x="873.339844" xlink:href="#DejaVuSans-69"/>
      <use x="901.123047" xlink:href="#DejaVuSans-61"/>
     </g>
    </g>
    <g id="line2d_21">
     <path d="M 117.214141 112.205 
L 157.214141 112.205 
" style="fill:none;stroke:#ff7f0e;stroke-linecap:square;stroke-width:1.5;"/>
    </g>
    <g id="line2d_22"/>
    <g id="text_17">
     <!-- Matriz de Adjacência -->
     <g transform="translate(173.214141 119.205)scale(0.2 -0.2)">
      <defs>
       <path d="M 628 4666 
L 1569 4666 
L 2759 1491 
L 3956 4666 
L 4897 4666 
L 4897 0 
L 4281 0 
L 4281 4097 
L 3078 897 
L 2444 897 
L 1241 4097 
L 1241 0 
L 628 0 
L 628 4666 
z
" id="DejaVuSans-4d" transform="scale(0.015625)"/>
       <path d="M 353 3500 
L 3084 3500 
L 3084 2975 
L 922 459 
L 3084 459 
L 3084 0 
L 275 0 
L 275 525 
L 2438 3041 
L 353 3041 
L 353 3500 
z
" id="DejaVuSans-7a" transform="scale(0.015625)"/>
       <path d="M 2188 4044 
L 1331 1722 
L 3047 1722 
L 2188 4044 
z
M 1831 4666 
L 2547 4666 
L 4325 0 
L 3669 0 
L 3244 1197 
L 1141 1197 
L 716 0 
L 50 0 
L 1831 4666 
z
" id="DejaVuSans-41" transform="scale(0.015625)"/>
      </defs>
      <use xlink:href="#DejaVuSans-4d"/>
      <use x="86.279297" xlink:href="#DejaVuSans-61"/>
      <use x="147.558594" xlink:href="#DejaVuSans-74"/>
      <use x="186.767578" xlink:href="#DejaVuSans-72"/>
      <use x="227.880859" xlink:href="#DejaVuSans-69"/>
      <use x="255.664062" xlink:href="#DejaVuSans-7a"/>
      <use x="308.154297" xlink:href="#DejaVuSans-20"/>
      <use x="339.941406" xlink:href="#DejaVuSans-64"/>
      <use x="403.417969" xlink:href="#DejaVuSans-65"/>
      <use x="464.941406" xlink:href="#DejaVuSans-20"/>
      <use x="496.728516" xlink:href="#DejaVuSans-41"/>
      <use x="563.386719" xlink:href="#DejaVuSans-64"/>
      <use x="626.863281" xlink:href="#DejaVuSans-6a"/>
      <use x="654.646484" xlink:href="#DejaVuSans-61"/>
      <use x="715.925781" xlink:href="#DejaVuSans-63"/>
      <use x="770.90625" xlink:href="#DejaVuSans-ea"/>
      <use x="832.429688" xlink:href="#DejaVuSans-6e"/>
      <use x="895.808594" xlink:href="#DejaVuSans-63"/>
      <use x="950.789062" xlink:href="#DejaVuSans-69"/>
      <use x="978.572266" xlink:href="#DejaVuSans-61"/>
     </g>
    </g>
    <g id="line2d_23">
     <path d="M 117.214141 141.56125 
L 157.214141 141.56125 
" style="fill:none;stroke:#2ca02c;stroke-linecap:square;stroke-width:1.5;"/>
    </g>
    <g id="line2d_24"/>
    <g id="text_18">
     <!-- Matriz de Incidência -->
     <g transform="translate(173.214141 148.56125)scale(0.2 -0.2)">
      <defs>
       <path d="M 628 4666 
L 1259 4666 
L 1259 0 
L 628 0 
L 628 4666 
z
" id="DejaVuSans-49" transform="scale(0.015625)"/>
      </defs>
      <use xlink:href="#DejaVuSans-4d"/>
      <use x="86.279297" xlink:href="#DejaVuSans-61"/>
      <use x="147.558594" xlink:href="#DejaVuSans-74"/>
      <use x="186.767578" xlink:href="#DejaVuSans-72"/>
      <use x="227.880859" xlink:href="#DejaVuSans-69"/>
      <use x="255.664062" xlink:href="#DejaVuSans-7a"/>
      <use x="308.154297" xlink:href="#DejaVuSans-20"/>
      <use x="339.941406" xlink:href="#DejaVuSans-64"/>
      <use x="403.417969" xlink:href="#DejaVuSans-65"/>
      <use x="464.941406" xlink:href="#DejaVuSans-20"/>
      <use x="496.728516" xlink:href="#DejaVuSans-49"/>
      <use x="526.220703" xlink:href="#DejaVuSans-6e"/>
      <use x="589.599609" xlink:href="#DejaVuSans-63"/>
      <use x="644.580078" xlink:href="#DejaVuSans-69"/>
      <use x="672.363281" xlink:href="#DejaVuSans-64"/>
      <use x="735.839844" xlink:href="#DejaVuSans-ea"/>
      <use x="797.363281" xlink:href="#DejaVuSans-6e"/>
      <use x="860.742188" xlink:href="#DejaVuSans-63"/>
      <use x="915.722656" xlink:href="#DejaVuSans-69"/>
      <use x="943.505859" xlink:href="#DejaVuSans-61"/>
     </g>
    </g>
   </g>
  </g>
 </g>
 <defs>
  <clipPath id="p8ce1934aad">
   <rect height="617.48" width="1317.025859" x="99.214141" y="23.76"/>
  </clipPath>
 </defs>
</svg>
